<svg xmlns="http://www.w3.org/2000/svg" version="1.1" xmlns:xlink="http://www.w3.org/1999/xlink" xmlns:svgjs="http://svgjs.dev/svgjs" width="1000" height="623" viewBox="0 0 1000 623"><g transform="matrix(1,0,0,1,-0.6060476965196244,0.32491632166323825)"><svg viewBox="0 0 396 247" data-background-color="#ffffff" preserveAspectRatio="xMidYMid meet" height="623" width="1000" xmlns="http://www.w3.org/2000/svg" xmlns:xlink="http://www.w3.org/1999/xlink"><g id="tight-bounds" transform="matrix(1,0,0,1,0.23999488951591275,-0.09981915160645372)"><svg viewBox="0 0 395.52 247.2" height="247.2" width="395.52"><g><svg></svg></g><g><svg viewBox="0 0 395.52 247.2" height="247.2" width="395.52"><g><g><path xmlns="http://www.w3.org/2000/svg" d="M116.486 25.051c-24.453 0-44.13 7.535-59.031 22.604l-36.309 0c3.275-5.069 6.915-9.76 10.92-14.075 9.974-10.697 22.213-19.009 36.717-24.936 14.504-5.879 30.525-8.77 48.064-8.673 25.442 0 47.486 4.626 66.134 13.877l-11.854 23.996c-17.925-8.529-36.139-12.793-54.641-12.793zM116.124 222.368c17.057 0 36.235-2.987 57.533-8.963v24.502c-16.672 6.216-37.271 9.324-61.797 9.324-35.416 0-62.737-10.721-81.962-32.163-4.221-4.748-7.979-9.922-11.276-15.523l37.045 0c14.538 15.215 34.69 22.823 60.457 22.823zM314.308 243.906h-28.333l0-44.361 28.333 0zM205.965 3.44h30.501l23.436 44.215-30.131 0zM364.396 3.44h30.14l-24.082 44.215-29.653 0z" fill="#1c4b82" fill-rule="nonzero" stroke="none" stroke-width="1" stroke-linecap="butt" stroke-linejoin="miter" stroke-miterlimit="10" stroke-dasharray="" stroke-dashoffset="0" font-family="none" font-weight="none" font-size="none" text-anchor="none" style="mix-blend-mode: normal" data-fill-palette-color="tertiary"></path></g></g><g transform="matrix(1,0,0,1,2.842170943040401e-14,58.436729713603384)"><svg viewBox="0 0 395.5199999999999 130.32654057279322" height="130.32654057279322" width="395.5199999999999"><g><svg viewBox="0 0 395.5199999999999 130.32654057279322" height="130.32654057279322" width="395.5199999999999"><g><svg viewBox="0 0 395.5199999999999 130.32654057279322" height="130.32654057279322" width="395.5199999999999"><g><svg viewBox="0 0 395.5199999999999 130.32654057279322" height="130.32654057279322" width="395.5199999999999"><g><svg viewBox="0 0 395.5199999999999 130.32654057279322" height="130.32654057279322" width="395.5199999999999"><g><svg viewBox="0 0 395.5199999999999 73.88444205804402" height="73.88444205804402" width="395.5199999999999"><g transform="matrix(1,0,0,1,0,0)"><svg width="395.5199999999999" viewBox="2.829648971557617 -35.38999938964844 191.87034606933594 35.85068893432617" height="73.88444205804402" data-palette-color="#1c4b82"><path d="M18.81-30.28L18.81-30.28Q13.32-30.28 10.15-26.62 6.98-22.95 6.98-16.52 6.98-10.09 10.04-6.53 13.09-2.98 18.76-2.98L18.76-2.98Q22.3-2.98 26.72-4.22L26.72-4.22 26.72-0.83Q23.26 0.46 18.17 0.46L18.17 0.46Q10.82 0.46 6.83-3.99L6.83-3.99Q2.83-8.49 2.83-16.68L2.83-16.68Q2.81-20.48 3.93-23.67 5.06-26.87 7.13-29.1 9.2-31.32 12.21-32.55 15.22-33.77 18.86-33.75L18.86-33.75Q24.14-33.75 28.01-31.83L28.01-31.83 26.37-28.51Q22.65-30.28 18.81-30.28ZM35.07-21.99Q38.14-25.38 43.45-25.38 48.76-25.38 51.84-21.9 54.93-18.43 54.93-12.42 54.93-6.42 51.84-2.96L51.84-2.96Q48.76 0.46 43.37 0.46L43.37 0.46Q38.29 0.51 35.11-3.06 31.92-6.62 32-12.49L32-12.49Q32-18.6 35.07-21.99ZM43.4-22.17L43.4-22.17Q35.92-22.17 35.92-12.49L35.92-12.49Q35.92-7.71 37.83-5.21 39.73-2.7 43.45-2.7 47.17-2.7 49.09-5.19 51.01-7.68 51.01-12.47 51.01-17.26 49.09-19.72 47.17-22.17 43.4-22.17ZM65.82-19.65Q64.05-17.09 64.05-12.34 64.05-7.58 65.81-5.14 67.56-2.7 70.95-2.7L70.95-2.7Q74.82-2.7 76.56-4.82 78.31-6.93 78.31-11.6L78.31-11.6 78.31-12.39Q78.31-17.72 76.54-19.97 74.77-22.22 70.9-22.22L70.9-22.22Q67.59-22.22 65.82-19.65ZM78.31-3.34Q75.68 0.46 70.63 0.46 65.59 0.46 62.86-2.88L62.86-2.88Q60.13-6.27 60.13-12.41 60.13-18.55 62.86-21.97 65.59-25.38 70.58-25.38 75.58-25.38 78.26-21.71L78.26-21.71 78.56-21.71 78.38-23.51 78.31-25.25 78.31-35.39 82.07-35.39 82.07 0 79.01 0 78.51-3.34 78.31-3.34ZM100.6 0.46L100.6 0.46Q95.06 0.46 91.85-2.91L91.85-2.91Q88.67-6.27 88.67-12.29 88.67-18.3 91.63-21.84L91.63-21.84Q94.63-25.38 99.47-25.38 104.32-25.38 107.05-22.3 109.78-19.21 109.78-14.18L109.78-14.18 109.78-11.78 92.59-11.78Q92.71-7.41 94.81-5.12 96.91-2.83 100.86-2.83 104.82-2.83 108.69-4.52L108.69-4.52 108.69-1.16Q106.74-0.3 104.92 0.08 103.1 0.46 100.6 0.46ZM92.69-14.86L105.73-14.86Q105.73-18.43 104.14-20.32 102.55-22.22 99.58-22.22 96.61-22.22 94.8-20.27 92.99-18.33 92.69-14.86L92.69-14.86ZM127.57-25.38L127.57-25.38Q129.29-25.38 130.55-25.13L130.55-25.13 130.05-21.61Q128.55-21.94 127.32-21.94L127.32-21.94Q124.28-21.94 122.13-19.49 119.98-17.04 119.98-13.37L119.98-13.37 119.98 0 116.19 0 116.19-24.92 119.33-24.92 119.76-20.32 119.93-20.32Q121.32-22.78 123.28-24.08 125.24-25.38 127.57-25.38ZM159.64-12.89L159.64 0 155.72 0 155.72-12.71 144.65-33.27 148.87-33.27 157.69-16.63 166.57-33.27 170.74-33.27 159.64-12.89ZM178.47-9.33L178.47 0 174.73 0 174.73-35.39 178.47-35.39 178.47-16.63Q178.47-15.22 178.29-12.77L178.29-12.77 178.47-12.77Q179.51-14.23 181.45-16.41L181.45-16.41 189.49-24.92 193.99-24.92 183.88-14.31 194.7 0 190.12 0 181.3-11.78 178.47-9.33Z" opacity="1" transform="matrix(1,0,0,1,0,0)" fill="#1c4b82" class="undefined-text-0" data-fill-palette-color="primary" id="text-0"></path></svg></g></svg></g><g transform="matrix(1,0,0,1,0,84.66595538092203)"><svg viewBox="0 0 395.5199999999999 45.6605851918712" height="45.6605851918712" width="395.5199999999999"><g transform="matrix(1,0,0,1,0,0)"><svg width="395.5199999999999" viewBox="0.10000000149011612 -40.15999984741211 347.8800048828125 40.15999984741211" height="45.6605851918712" data-palette-color="#1c4b82"><path d="M26 0L12.84 0Q12.01 0 12.01-0.49L12.01-0.49 12.01-0.73Q12.01-1.12 12.73-1.21 13.45-1.29 13.67-1.32L13.67-1.32Q15.53-1.51 16.28-2.23 17.04-2.95 17.04-4.39L17.04-4.39 17.04-12.48Q17.04-12.65 16.97-12.84L16.97-12.84 6.98-28.76Q4.64-32.5 2.34-33.06L2.34-33.06Q2.22-33.08 1.9-33.15 1.59-33.23 0.49-33.4L0.49-33.4Q0.1-33.47 0.1-33.95 0.1-34.42 0.46-34.42L0.46-34.42 14.43-34.42Q14.84-34.42 14.84-33.94 14.84-33.45 14.43-33.45L14.43-33.45Q12.79-33.28 12.26-33.11L12.26-33.11Q11.04-32.67 11.04-31.54L11.04-31.54Q11.04-30.96 11.33-30.49L11.33-30.49 19.58-17.31Q19.85-16.92 19.91-16.81 19.97-16.7 20.18-16.7 20.39-16.7 20.83-17.41L20.83-17.41 27.42-28.61Q27.71-29.2 28.09-29.87 28.47-30.54 28.47-31.25L28.47-31.25Q28.47-33.03 26.03-33.35L26.03-33.35Q25.15-33.47 25.07-33.62 25-33.76 25-33.98L25-33.98Q25-34.42 25.42-34.42L25.42-34.42 36.82-34.42Q37.16-34.42 37.16-34.08 37.16-33.74 37.05-33.62 36.94-33.5 36.76-33.44 36.57-33.37 36.35-33.34 36.13-33.3 35.4-33.13L35.4-33.13Q33.69-32.71 31.69-30.42L31.69-30.42Q31.47-30.15 31.45-30.1L31.45-30.1 21.8-13.5 21.8-4.39Q21.8-3.08 22.55-2.32 23.29-1.56 25.06-1.33 26.83-1.1 26.83-0.76L26.83-0.76 26.83-0.49Q26.83 0 26 0L26 0ZM330.45-11.69L330.43-11.69Q330.13-11.69 330.13-10.5L330.13-10.5 330.13-3.71Q330.13-1.32 332.77-0.93L332.77-0.93Q333.92-0.78 333.92-0.39 333.92 0 333.67 0L333.67 0 322.79 0Q322.54-0.05 322.54-0.34L322.54-0.34Q322.54-0.78 323.69-0.93L323.69-0.93Q326.33-1.32 326.33-3.71L326.33-3.71 326.33-34.16Q326.33-35.18 325.2-35.57L325.2-35.57Q324.71-35.74 324.15-35.85 323.59-35.96 323.26-36.06 322.93-36.16 322.85-36.24 322.76-36.33 322.76-36.61 322.76-36.89 323.13-37.08L323.13-37.08 329.35-40.01Q329.65-40.16 329.72-40.16L329.72-40.16Q330.13-40.16 330.13-39.58L330.13-39.58 330.13-15.21Q330.33-14.5 330.65-14.38 330.96-14.26 331.33-14.26L331.33-14.26Q332.04-14.26 333.66-15.37 335.29-16.48 336.6-17.86 337.92-19.24 337.92-19.76 337.92-20.29 337.46-20.42 336.99-20.56 336.42-20.62 335.85-20.68 335.38-20.81 334.92-20.95 334.92-21.46 334.92-21.97 335.92-21.97L335.92-21.97 345.22-21.97Q346.08-21.97 346.08-21.41L346.08-21.41Q346.08-21.12 345.51-20.95 344.95-20.78 343.34-20.42 341.73-20.07 340.78-19.31L340.78-19.31 333.77-13.84Q333.77-13.53 334.24-13.06L334.24-13.06 344.27-2.49Q345.25-1.49 346.27-1.18 347.3-0.88 347.64-0.78 347.98-0.68 347.98-0.44L347.98-0.44Q347.98 0 347.59 0L347.59 0 336.87 0Q336.63 0 336.63-0.29L336.63-0.29Q336.63-0.73 337.24-0.85L337.24-0.85Q339.07-1.2 339.07-2.1L339.07-2.1Q339.07-2.37 338.7-2.81 338.34-3.25 338.02-3.66L338.02-3.66 330.48-11.65Q330.48-11.67 330.45-11.69L330.45-11.69Z" opacity="1" transform="matrix(1,0,0,1,0,0)" fill="#1c4b82" class="undefined-text-1" data-fill-palette-color="secondary" id="text-1"></path></svg></g></svg></g></svg></g></svg></g><g></g></svg></g></svg></g></svg></g></svg></g><defs></defs></svg><rect width="395.52" height="247.2" fill="none" stroke="none" visibility="hidden"></rect></g></svg></g></svg>